<?xml version="1.0" standalone="no"?><!DOCTYPE svg PUBLIC "-//W3C//DTD SVG 1.1//EN" "http://www.w3.org/Graphics/SVG/1.1/DTD/svg11.dtd"><svg t="1528856677275" class="icon" style="" viewBox="0 0 1024 1024" version="1.1" xmlns="http://www.w3.org/2000/svg" p-id="2026" xmlns:xlink="http://www.w3.org/1999/xlink" width="16" height="16"><defs><style type="text/css"></style></defs><path d="M933.65248 513.024a416.8704 416.8704 0 0 1-800.768 162.23232 416.8704 416.8704 0 0 1 768-324.46464 414.17728 414.17728 0 0 1 32.768 162.23232z m-792.576 0c0 207.21664 168.59136 375.808 375.808 375.808s375.808-168.59136 375.808-375.808-168.59136-375.808-375.808-375.808-375.808 168.59136-375.808 375.808z" fill="#8a8a8a" p-id="2027"></path><path d="M636.04736 513.024A20.48 20.48 0 0 1 601.088 527.50336L403.72224 330.14784a20.48 20.48 0 1 1 28.95872-28.96896l197.36576 197.36576a20.41856 20.41856 0 0 1 6.00064 14.47936z" fill="#8a8a8a" p-id="2028"></path><path d="M636.04736 513.024a20.41856 20.41856 0 0 1-6.00064 14.47936L432.68096 724.86912a20.48 20.48 0 1 1-28.96896-28.95872L601.088 498.54464A20.48 20.48 0 0 1 636.04736 513.024z" fill="#8a8a8a" p-id="2029"></path></svg>