<?xml version="1.0" standalone="no"?><!DOCTYPE svg PUBLIC "-//W3C//DTD SVG 1.1//EN" "http://www.w3.org/Graphics/SVG/1.1/DTD/svg11.dtd"><svg t="1528870047852" class="icon" style="" viewBox="0 0 1024 1024" version="1.1" xmlns="http://www.w3.org/2000/svg" p-id="20600" xmlns:xlink="http://www.w3.org/1999/xlink" width="48" height="48"><defs><style type="text/css"></style></defs><path d="M658.993548 621.006452H379.870968V462.451613h1.651613c9.909677-66.064516 67.716129-115.612903 138.735484-115.612903s127.174194 49.548387 138.735483 115.612903h1.651613v158.554839z m-246.090322-33.032258h213.058064V478.967742c-1.651613-56.154839-49.548387-99.096774-107.354838-99.096774s-104.051613 44.593548-107.354839 99.096774v109.006452zM345.187097 644.129032h343.535484c6.606452 0 13.212903 6.606452 13.212903 13.212903s-6.606452 13.212903-13.212903 13.212904H345.187097c-6.606452 0-13.212903-6.606452-13.212903-13.212904s4.954839-13.212903 13.212903-13.212903zM310.503226 710.193548h406.296774c6.606452 0 13.212903 6.606452 13.212903 13.212904s-6.606452 13.212903-13.212903 13.212903H310.503226c-6.606452 0-13.212903-6.606452-13.212903-13.212903s6.606452-13.212903 13.212903-13.212904zM277.470968 477.316129h39.638709c6.606452 0 13.212903 6.606452 13.212904 13.212903s-6.606452 13.212903-13.212904 13.212903h-39.638709c-6.606452 0-13.212903-6.606452-13.212903-13.212903 0-8.258065 6.606452-13.212903 13.212903-13.212903zM706.890323 477.316129h39.638709c6.606452 0 13.212903 6.606452 13.212903 13.212903s-6.606452 13.212903-13.212903 13.212903h-39.638709c-6.606452 0-13.212903-6.606452-13.212904-13.212903 0-8.258065 4.954839-13.212903 13.212904-13.212903zM647.432258 350.141935l28.077419-26.425806c4.954839-4.954839 13.212903-4.954839 19.819355 0 4.954839 4.954839 4.954839 13.212903 0 18.167742l-28.077419 26.425806c-4.954839 4.954839-13.212903 4.954839-19.819355 0-4.954839-4.954839-4.954839-13.212903 0-18.167742zM353.445161 368.309677l-28.077419-26.425806c-4.954839-4.954839-4.954839-13.212903 0-18.167742 4.954839-4.954839 13.212903-4.954839 19.819355 0l28.077419 26.425806c4.954839 4.954839 4.954839 13.212903 0 18.167742-6.606452 4.954839-14.864516 4.954839-19.819355 0zM515.303226 247.741935c8.258065 0 13.212903 6.606452 13.212903 13.212904v37.987096c0 8.258065-6.606452 13.212903-13.212903 13.212904-8.258065 0-13.212903-6.606452-13.212903-13.212904v-37.987096c0-6.606452 4.954839-13.212903 13.212903-13.212904z" fill="#e23608" p-id="20601"></path><path d="M512 1024C229.574194 1024 0 794.425806 0 512S229.574194 0 512 0s512 229.574194 512 512-229.574194 512-512 512z m0-990.967742C247.741935 33.032258 33.032258 247.741935 33.032258 512s214.709677 478.967742 478.967742 478.967742 478.967742-214.709677 478.967742-478.967742S776.258065 33.032258 512 33.032258z" fill="#e23608" p-id="20602"></path></svg>