<?xml version="1.0" standalone="no"?><!DOCTYPE svg PUBLIC "-//W3C//DTD SVG 1.1//EN" "http://www.w3.org/Graphics/SVG/1.1/DTD/svg11.dtd"><svg t="1528869707333" class="icon" style="" viewBox="0 0 1024 1024" version="1.1" xmlns="http://www.w3.org/2000/svg" p-id="8798" xmlns:xlink="http://www.w3.org/1999/xlink" width="48" height="48"><defs><style type="text/css"></style></defs><path d="M519.836444 40.106667c-266.638222 0-483.555556 216.917333-483.555555 483.541333 0 266.638222 216.917333 483.555556 483.555555 483.555556s483.555556-216.917333 483.555556-483.555556c0-266.624-216.917333-483.541333-483.555556-483.541333z m0 910.208c-235.264 0-426.666667-191.402667-426.666666-426.666667s191.402667-426.652444 426.666666-426.652444 426.666667 191.388444 426.666667 426.652444-191.402667 426.666667-426.666667 426.666667z" fill="#1296db" p-id="8799"></path><path d="M519.836444 523.662222m-61.511111 0a61.511111 61.511111 0 1 0 123.022223 0 61.511111 61.511111 0 1 0-123.022223 0Z" fill="#1296db" p-id="8800"></path><path d="M790.243556 509.425778c-7.210667-137.955556-117.774222-248.675556-255.672889-256.156445V178.488889h-28.444445v74.737778c-138.368 6.954667-249.500444 117.902222-256.725333 256.213333h-74.225778v28.444444h74.225778c7.224889 138.311111 118.343111 249.258667 256.725333 256.227556v74.780444h28.444445v-74.837333c137.884444-7.466667 248.462222-118.215111 255.672889-256.170667h75.306666v-28.444444h-75.306666zM534.584889 765.596444v-47.118222h-28.444445v47.175111c-122.695111-6.897778-221.127111-105.144889-228.280888-227.783111h47.715555v-28.444444h-47.715555c7.168-122.638222 105.585778-220.856889 228.280888-227.768889v47.203555h28.444445v-47.146666c122.211556 7.409778 220.088889 105.429333 227.228444 227.712h-46.606222v28.444444h46.606222c-7.139556 122.282667-105.016889 220.330667-227.228444 227.726222z" fill="#1296db" p-id="8801"></path></svg>