<?xml version="1.0" standalone="no"?><!DOCTYPE svg PUBLIC "-//W3C//DTD SVG 1.1//EN" "http://www.w3.org/Graphics/SVG/1.1/DTD/svg11.dtd"><svg t="1528869568445" class="icon" style="" viewBox="0 0 1024 1024" version="1.1" xmlns="http://www.w3.org/2000/svg" p-id="5916" xmlns:xlink="http://www.w3.org/1999/xlink" width="48" height="48"><defs><style type="text/css"></style></defs><path d="M797.28312 378.370678c-21.399203-22.030941-44.080311-41.565649-67.189402-58.193546-3.851857-2.90681-7.273681-5.404067-10.697554-7.484602 32.952725-16.627898 54.777865-46.554018 54.777865-81.056905 0-54.454317-53.064905-96.019966-115.973443-96.019966-14.550434 0-27.816917 2.496232-39.799447 7.06788-5.991777 2.075416-10.270594 4.155951-13.694466 6.230343-1.71296 0.832419-6.417713-0.415697-8.130674-2.491113-4.706801-7.06788-11.981506-15.378758-22.252099-24.106356-17.849393-15.125858-38.73563-25.005327-62.054618-27.038764-23.318988 2.033436-44.205225 11.912906-62.055642 27.038764-10.271618 8.727599-17.545299 17.038476-22.2521 24.106356-1.71296 2.075416-6.417713 3.323532-8.130673 2.491113-3.423873-2.075416-7.702689-4.155951-13.694466-6.230343-11.98253-4.571648-25.249012-7.06788-39.799447-7.06788-62.908538 0-115.973443 41.565649-115.973443 96.019966 0 34.502888 21.82514 64.429008 54.777865 81.056905-3.423873 2.080535-6.845697 4.576767-10.697554 7.484602-23.109092 16.627898-45.789176 36.162606-67.189402 58.193546-62.051546 63.598637-100.139056 136.757291-100.139057 217.813173 0 225.294703 172.891228 332.5385 381.30411 332.5385 1.284976 0 2.566881-0.016382 3.850833-0.023549 1.283952 0.007167 2.565857 0.023549 3.850832 0.023549 208.411858 0 381.30411-107.243797 381.30411-332.5385-0.003072-81.055882-38.090582-154.21556-100.142128-217.813173z" fill="#F44E4E" p-id="5917"></path><path d="M646.284 600.202c20.588 0 37.279-16.691 37.279-37.279s-16.691-37.279-37.279-37.279h-43.963l69.493-69.493c14.559-14.559 14.559-38.162 0-52.72-14.558-14.559-38.162-14.558-52.719 0l-106.771 106.771-106.771-106.771c-14.559-14.558-38.162-14.558-52.719 0-14.559 14.559-14.559 38.162 0 52.72l69.493 69.493h-43.636c-20.588 0-37.279 16.691-37.279 37.279s16.691 37.279 37.279 37.279h96.355v37.253h-74.507c-20.588 0-37.279 16.691-37.279 37.279s16.691 37.279 37.279 37.279h74.507v57.35c0 20.588 16.691 37.279 37.279 37.279s37.279-16.691 37.279-37.279v-57.35h71.242c20.588 0 37.279-16.691 37.279-37.279s-16.691-37.279-37.279-37.279h-71.242v-37.253h96.682z" fill="#FFFFFF" p-id="5918"></path></svg>