<?xml version="1.0" standalone="no"?><!DOCTYPE svg PUBLIC "-//W3C//DTD SVG 1.1//EN" "http://www.w3.org/Graphics/SVG/1.1/DTD/svg11.dtd"><svg t="1528869942700" class="icon" style="" viewBox="0 0 1024 1024" version="1.1" xmlns="http://www.w3.org/2000/svg" p-id="15983" xmlns:xlink="http://www.w3.org/1999/xlink" width="48" height="48"><defs><style type="text/css"></style></defs><path d="M924.2 945.4h-812c-19.4 0-37.2-17.8-37.3-37.1V679c0-37.2 18.8-56.7 38.5-38.1L223.2 727c14.8 12.6 36.9 29.7 49.3 14.8l125.9-152.2c12.3-14.9 34.6-36 49.5-23.5L556.1 660c14.9 12.4 45.6 34.2 57.7 19l269.5-323.5c36.4-41.4 77-31.7 77 19v533.8c0.1 19.3-16.7 37.1-36.1 37.1z" fill="#f9c038" p-id="15984"></path><path d="M608.2 548.1c-10 12.7-24.7 20.9-40.8 22.5-16.1 1.9-32.2-3.2-44.6-13.6L400.6 454.5 277.9 615.8c-9.8 12.9-24.4 21.2-40.5 23.1-2.3 0.3-4.7 0.4-7 0.4-13.7 0-27-4.7-37.7-13.5L85.5 538.7c-25.5-20.8-29.3-58.2-8.4-83.6 20.8-25.4 58.4-29.1 83.9-8.4l59.2 48.2 123.2-162c9.9-13 24.7-21.4 40.9-23.2 16.4-1.8 32.5 3.1 45 13.6l122.8 103.1 158.7-198.3-44.2-36.6c-31.4-26-24.4-54.1 15.5-62.5l230-48.5c39.9-8.4 52.2 11.1 27.4 43.4L608.2 548.1z" fill="#f9c038" p-id="15985"></path></svg>