<?xml version="1.0" standalone="no"?><!DOCTYPE svg PUBLIC "-//W3C//DTD SVG 1.1//EN" "http://www.w3.org/Graphics/SVG/1.1/DTD/svg11.dtd"><svg t="1528870163845" class="icon" style="" viewBox="0 0 1025 1024" version="1.1" xmlns="http://www.w3.org/2000/svg" p-id="22829" xmlns:xlink="http://www.w3.org/1999/xlink" width="48.046875" height="48"><defs><style type="text/css"></style></defs><path d="M602.81056 816c-25.6 12.8-38.4 35.2-38.4 60.8v38.4c0 19.2-16 35.2-35.2 35.2h-92.8c-19.2 0-35.2-16-35.2-35.2v-38.4c0-25.6-16-51.2-38.4-60.8C270.01056 768 212.41056 672 218.81056 569.6c9.6-131.2 121.6-233.6 256-236.8 147.2-3.2 272 112 272 256 0 96-54.4 182.4-144 227.2M487.61056 262.4C302.01056 259.2 148.41056 406.4 148.41056 585.6c0 118.4 64 224 163.2 281.6 12.8 6.4 19.2 19.2 19.2 35.2v22.4c0 54.4 44.8 99.2 99.2 99.2h105.6c54.4 0 99.2-44.8 99.2-99.2v-22.4c0-12.8 6.4-28.8 19.2-35.2 96-57.6 163.2-160 163.2-278.4 3.2-179.2-147.2-326.4-329.6-326.4" fill="#F35B00" p-id="22830"></path><path d="M551.61056 515.2h-140.8c-19.2 0-35.2 16-35.2 35.2 0 19.2 16 35.2 35.2 35.2h35.2v115.2c0 19.2 16 35.2 35.2 35.2 19.2 0 35.2-16 35.2-35.2v-115.2h35.2c19.2 0 35.2-16 35.2-35.2 0-19.2-16-35.2-35.2-35.2M481.21056 150.4c19.2 0 35.2-16 35.2-35.2V35.2C516.41056 16 500.41056 0 481.21056 0s-35.2 16-35.2 35.2v80c0 19.2 16 35.2 35.2 35.2M234.81056 192c9.6 16 32 22.4 48 12.8 16-9.6 22.4-32 12.8-48L254.01056 86.4c-9.6-16-32-22.4-48-12.8-16 9.6-22.4 32-12.8 51.2L234.81056 192zM122.81056 304L55.61056 262.4c-19.2-9.6-38.4-3.2-51.2 16-9.6 16-3.2 38.4 16 48l70.4 41.6c16 9.6 38.4 3.2 48-12.8s3.2-41.6-16-51.2M682.81056 204.8c16 9.6 38.4 3.2 48-12.8l41.6-70.4c9.6-16 3.2-38.4-12.8-48-16-9.6-38.4-3.2-48 12.8l-41.6 70.4c-9.6 19.2-6.4 38.4 12.8 48M958.01056 278.4c-9.6-16-32-22.4-48-12.8l-70.4 41.6c-16 9.6-22.4 32-12.8 48 9.6 16 32 22.4 48 12.8l70.4-41.6c16-9.6 22.4-32 12.8-48" fill="#F35B00" p-id="22831"></path></svg>